{"title":"Crimes Of Passion S01E05 Dangerous Dreams X264 RB58.mp4","uid":11120659,"size":1045201096,"categoryP":"video","categoryS":"tv_shows","magnet":"?xt=urn:btih:ee1e9e199360f235eb292bfa3b31d51fbbf1dc32&amp;dn=Crimes+Of+Passion+S01E05+Dangerous+Dreams+X264+RB58.mp4&amp;tr=udp%3A%2F%2Ftracker.openbittorrent.com%3A80&amp;tr=udp%3A%2F%2Fopen.demonii.com%3A1337&amp;tr=udp%3A%2F%2Ftracker.coppersurfer.tk%3A6969&amp;tr=udp%3A%2F%2Fexodus.desync.com%3A6969","seeders":1,"leechers":0,"uploader":"RedBaron58","files":1,"time":1411909484,"description":"Crimes of Passion (Swedish) S01E05 English Subs x264 mp4\n\nIn Swedish With BBC Hard Coded Engish Subtitles \n\nEpisode Title: Dangerous Dreams\n &lt;a href=&quot;\nhttp://www.imdb.com/title/tt2573414/&quot; rel=&quot;nofollow&quot; target=&quot;_NEW&quot;&gt;\nhttp://www.imdb.com/title/tt2573414/&lt;/a&gt;\n\nTrailer: (E01)\n\n\nThank you for your kind comments and thumbs ups on my other torrents, your feedback is welcome.\n\n\nAbout the Episode:\nPuck lands a job working for the eccentric Nobel Literature Prize laureate Andreas Hallman, who is charming \nand genial but also a neurotic tyrant. After his daughter-in-law's birthday dinner, Hallman's eldest son \ndies, and an exquisite tale of poisoning unravels, exposing Puck to a murder attempt. \n\nSwedish crime drama, starring Tuva Novotny\n\n\nI hope you enjoy.\n\nTechnical:\n\nGeneral\nComplete name                            : H:Crimes Of Passion S01E05 Dangerous Dreams X264 RB58.mp4\nFormat                                   : MPEG-4\nFormat profile                           : Base Media\nCodec ID                                 : isom\nFile size                                : 997 MiB\nDuration                                 : 1h 31mn\nOverall bit rate                         : 1 526 Kbps\nWriting application                      : Lavf54.63.104\n\nVideo\nID                                       : 1\nFormat                                   : AVC\nFormat/Info                              : Advanced Video Codec\nFormat profile                           : &lt;a class=&quot;__cf_email__&quot; href=&quot;/cdn-cgi/l/email-protection&quot; data-cfemail=&quot;f9b1909e91b9b5cad7c9&quot;&gt;[email&amp;#160;protected]&lt;/a&gt;&lt;script data-cfhash='f9e31' type=&quot;text/javascript&quot;&gt;\n/* &lt;![CDATA[ */!function(){try{var t=&quot;currentScript&quot;in document?document.currentScript:function(){for(var t=document.getElementsByTagName(&quot;script&quot;),e=t.length;e--;)if(t[e].getAttribute(&quot;data-cfhash&quot;))return t[e]}();if(t&amp;&amp;t.previousSibling){var e,r,n,i,c=t.previousSibling,a=c.getAttribute(&quot;data-cfemail&quot;);if(a){for(e=&quot;&quot;,r=parseInt(a.substr(0,2),16),n=2;a.length-n;n+=2)i=parseInt(a.substr(n,2),16)^r,e+=String.fromCharCode(i);e=document.createTextNode(e),c.parentNode.replaceChild(e,c)}t.parentNode.removeChild(t);}}catch(u){}}()/* ]]&gt; */&lt;/script&gt;\nFormat settings, CABAC                   : Yes\nFormat settings, ReFrames                : 4 frames\nCodec ID                                 : avc1\nCodec ID/Info                            : Advanced Video Coding\nDuration                                 : 1h 31mn\nBit rate                                 : 1 400 Kbps\nWidth                                    : 832 pixels\nHeight                                   : 468 pixels\nDisplay aspect ratio                     : 16:9\nFrame rate mode                          : Constant\nFrame rate                               : 25.000 fps\nColor space                              : YUV\nChroma subsampling                       : 4:2:0\nBit depth                                : 8 bits\nScan type                                : Progressive\nBits/(Pixel*Frame)                       : 0.144\nStream size                              : 914 MiB (92%)\nWriting library                          : x264 core 123 r2189 35cf912\nEncoding settings                        : cabac=1 / ref=3 / deblock=1:0:0\n\nAudio\nID                                       : 2\nFormat                                   : AAC\nFormat/Info                              : Advanced Audio Codec\nFormat profile                           : LC\nCodec ID                                 : 40\nDuration                                 : 1h 31mn\nBit rate mode                            : Constant\nBit rate                                 : 118 Kbps\nChannel(s)                               : 2 channels\nChannel positions                        : Front: L R\nSampling rate                            : 48.0 KHz\nCompression mode                         : Lossy\nStream size                              : 76.8 MiB (8%)","torrent":{"xt":"urn:btih:ee1e9e199360f235eb292bfa3b31d51fbbf1dc32","amp;dn":"Crimes+Of+Passion+S01E05+Dangerous+Dreams+X264+RB58.mp4","amp;tr":["udp%3A%2F%2Ftracker.openbittorrent.com%3A80","udp%3A%2F%2Fopen.demonii.com%3A1337","udp%3A%2F%2Ftracker.coppersurfer.tk%3A6969","udp%3A%2F%2Fexodus.desync.com%3A6969"],"infoHash":"ee1e9e199360f235eb292bfa3b31d51fbbf1dc32","infoHashBuffer":{"type":"Buffer","data":[238,30,158,25,147,96,242,53,235,41,43,250,59,49,213,31,187,241,220,50]},"announce":[],"urlList":[]}}